<svg width="67" height="256" viewBox="0 0 67 256" fill="none" xmlns="http://www.w3.org/2000/svg">
<path d="M31.6608 186.781L31.6585 186.783L31.6551 186.785L31.6545 186.786L31.5568 186.86C17.9727 197.137 9.89886 203.246 5.27613 212.387C2.81966 217.245 1.34414 222.943 0.5 230.551V25.4492C1.34414 33.057 2.81965 38.7554 5.27612 43.6128C9.89884 52.7539 17.9727 58.8625 31.5567 69.1402L31.6545 69.2142C32.7958 70.0777 33.9763 70.9709 35.1976 71.8982C37.9027 73.952 40.3657 75.9787 42.6084 77.9761L42.6138 77.9809L42.6193 77.9855C45.6933 80.5681 48.526 83.4248 51.0792 86.5174L51.0791 86.5175L51.0862 86.5258C60.824 97.8085 63.9774 107.973 65.0039 116.595L65.0055 116.609L65.008 116.623C65.66 120.318 66 124.119 66 128C66 131.881 65.66 135.682 65.008 139.377L65.0055 139.391L65.0039 139.405C63.9774 148.027 60.8239 158.192 51.0861 169.474L51.0861 169.474L51.0791 169.483C48.5259 172.575 45.6933 175.432 42.6193 178.014L42.6138 178.019L42.6084 178.024C40.3657 180.021 37.9027 182.048 35.1976 184.102C33.9949 185.015 32.8318 185.895 31.7068 186.746L31.6613 186.781L31.6608 186.781Z" fill="white" stroke="black"/>
</svg>
