<svg width="142" height="60" viewBox="0 0 142 60" fill="none" xmlns="http://www.w3.org/2000/svg">
<path d="M101 30C101 46.5685 87.5685 60 71 60C54.4315 60 41 46.5685 41 30C41 13.4315 54.4315 0 71 0C87.5685 0 101 13.4315 101 30Z" fill="#101010"/>
<path d="M43 0C26.4314 0 13 13.4315 13 30C13 46.5685 26.4314 60 43 60V0Z" fill="#101010"/>
<path d="M99 60C115.569 60 129 46.5685 129 30C129 13.4315 115.569 0 99 0V60Z" fill="#101010"/>
<path d="M127 55.9731C135.967 50.786 142 41.0908 142 29.9866C142 18.8823 135.967 9.18715 127 4V55.9731Z" fill="#101010"/>
<path d="M15 4.00002C6.03298 9.18716 0 18.8823 0 29.9865C0 41.0908 6.03298 50.7859 15 55.9731V4.00002Z" fill="#101010"/>
</svg>
